<svg xmlns="http://www.w3.org/2000/svg" xmlns:xlink="http://www.w3.org/1999/xlink" width="512" zoomAndPan="magnify" viewBox="0 0 384 383.999986" height="512" preserveAspectRatio="xMidYMid meet" version="1.0"><defs><clipPath id="feef9c1299"><path d="M 121 35 L 263 35 L 263 337 L 121 337 Z M 121 35 " clip-rule="nonzero"/></clipPath><clipPath id="ec0cde8ff7"><path d="M 34.40625 221.847656 L 178.925781 24.632812 L 350.128906 150.089844 L 205.609375 347.304688 Z M 34.40625 221.847656 " clip-rule="nonzero"/></clipPath><clipPath id="b1c1013754"><path d="M 34.40625 221.847656 L 178.925781 24.632812 L 350.128906 150.089844 L 205.609375 347.304688 Z M 34.40625 221.847656 " clip-rule="nonzero"/></clipPath><clipPath id="5f6e13f182"><path d="M 34.40625 221.847656 L 178.925781 24.632812 L 350.128906 150.089844 L 205.609375 347.304688 Z M 34.40625 221.847656 " clip-rule="nonzero"/></clipPath><clipPath id="7570c68bed"><path d="M 216.078125 217 L 384 217 L 384 343.6875 L 216.078125 343.6875 Z M 216.078125 217 " clip-rule="nonzero"/></clipPath><clipPath id="73dcafa83b"><path d="M 0.246094 215.6875 L 168 215.6875 L 168 342.6875 L 0.246094 342.6875 Z M 0.246094 215.6875 " clip-rule="nonzero"/></clipPath></defs><g clip-path="url(#feef9c1299)"><g clip-path="url(#ec0cde8ff7)"><g clip-path="url(#b1c1013754)"><g clip-path="url(#5f6e13f182)"><path fill="#34ab53" d="M 262.703125 186.242188 C 262.511719 269.59375 192.027344 336.945312 192.027344 336.945312 C 192.027344 336.945312 121.828125 269.1875 121.894531 185.746094 C 121.964844 102.300781 192.574219 35.039062 192.574219 35.039062 C 192.574219 35.039062 262.898438 102.886719 262.703125 186.242188 Z M 262.703125 186.242188 " fill-opacity="1" fill-rule="nonzero"/></g></g></g></g><g clip-path="url(#7570c68bed)"><path fill="#237b3a" d="M 328.476562 319.269531 C 282.226562 352.976562 216.304688 341.277344 216.304688 341.277344 C 216.304688 341.277344 225.34375 274.933594 271.59375 241.121094 C 317.84375 207.3125 383.765625 219.113281 383.765625 219.113281 C 383.765625 219.113281 374.726562 285.566406 328.476562 319.269531 Z M 328.476562 319.269531 " fill-opacity="1" fill-rule="nonzero"/></g><g clip-path="url(#73dcafa83b)"><path fill="#237b3a" d="M 55.625 318.144531 C 101.96875 351.914062 168.023438 340.195312 168.023438 340.195312 C 168.023438 340.195312 158.964844 273.714844 112.621094 239.835938 C 66.277344 205.957031 0.222656 217.785156 0.222656 217.785156 C 0.222656 217.785156 9.28125 284.371094 55.625 318.144531 Z M 55.625 318.144531 " fill-opacity="1" fill-rule="nonzero"/></g></svg>