<svg xmlns="http://www.w3.org/2000/svg" xmlns:xlink="http://www.w3.org/1999/xlink" width="512" zoomAndPan="magnify" viewBox="0 0 384 383.999986" height="512" preserveAspectRatio="xMidYMid meet" version="1.0"><defs><g/><clipPath id="33cd696f1e"><path d="M 134 15 L 250.644531 15 L 250.644531 264 L 134 264 Z M 134 15 " clip-rule="nonzero"/></clipPath><clipPath id="8f84151aee"><path d="M 62.234375 168.980469 L 181.351562 6.429688 L 322.457031 109.835938 L 203.34375 272.382812 Z M 62.234375 168.980469 " clip-rule="nonzero"/></clipPath><clipPath id="96cc274fea"><path d="M 62.234375 168.980469 L 181.351562 6.429688 L 322.457031 109.835938 L 203.34375 272.382812 Z M 62.234375 168.980469 " clip-rule="nonzero"/></clipPath><clipPath id="5e7090b4ee"><path d="M 62.234375 168.980469 L 181.351562 6.429688 L 322.457031 109.835938 L 203.34375 272.382812 Z M 62.234375 168.980469 " clip-rule="nonzero"/></clipPath><clipPath id="b8a7c0ac05"><path d="M 212 165 L 350.375 165 L 350.375 269.402344 L 212 269.402344 Z M 212 165 " clip-rule="nonzero"/></clipPath><clipPath id="cf4a5d7b80"><path d="M 34.078125 163.902344 L 172.34375 163.902344 L 172.34375 268.578125 L 34.078125 268.578125 Z M 34.078125 163.902344 " clip-rule="nonzero"/></clipPath><clipPath id="11d1137d61"><rect x="0" width="178" y="0" height="36"/></clipPath><clipPath id="8fecb5a848"><path d="M 232 14 L 259 14 L 259 58.199219 L 232 58.199219 Z M 232 14 " clip-rule="nonzero"/></clipPath><clipPath id="6e0d944061"><path d="M 267 14 L 294 14 L 294 58.199219 L 267 58.199219 Z M 267 14 " clip-rule="nonzero"/></clipPath><clipPath id="c33cd2e894"><rect x="0" width="302" y="0" height="59"/></clipPath></defs><g clip-path="url(#33cd696f1e)"><g clip-path="url(#8f84151aee)"><g clip-path="url(#96cc274fea)"><g clip-path="url(#5e7090b4ee)"><path fill="#34ab53" d="M 250.402344 139.632812 C 250.242188 208.332031 192.148438 263.84375 192.148438 263.84375 C 192.148438 263.84375 134.289062 207.996094 134.34375 139.222656 C 134.402344 70.445312 192.597656 15.007812 192.597656 15.007812 C 192.597656 15.007812 250.5625 70.929688 250.402344 139.632812 Z M 250.402344 139.632812 " fill-opacity="1" fill-rule="nonzero"/></g></g></g></g><g clip-path="url(#b8a7c0ac05)"><path fill="#237b3a" d="M 304.613281 249.277344 C 266.492188 277.058594 212.160156 267.414062 212.160156 267.414062 C 212.160156 267.414062 219.609375 212.734375 257.730469 184.863281 C 295.847656 157 350.183594 166.726562 350.183594 166.726562 C 350.183594 166.726562 342.734375 221.496094 304.613281 249.277344 Z M 304.613281 249.277344 " fill-opacity="1" fill-rule="nonzero"/></g><g clip-path="url(#cf4a5d7b80)"><path fill="#237b3a" d="M 79.722656 248.347656 C 117.921875 276.183594 172.363281 266.523438 172.363281 266.523438 C 172.363281 266.523438 164.898438 211.730469 126.699219 183.804688 C 88.503906 155.882812 34.058594 165.628906 34.058594 165.628906 C 34.058594 165.628906 41.527344 220.511719 79.722656 248.347656 Z M 79.722656 248.347656 " fill-opacity="1" fill-rule="nonzero"/></g><g transform="matrix(1, 0, 0, 1, 103, 263)"><g clip-path="url(#11d1137d61)"><g fill="#868686" fill-opacity="1"><g transform="translate(1.883465, 18.904355)"><g><path d="M 8.546875 -8.765625 C 9.773438 -8.546875 10.679688 -8.015625 11.265625 -7.171875 C 11.847656 -6.328125 12.023438 -5.238281 11.796875 -3.90625 L 10.765625 1.90625 L 10.140625 1.796875 L 11.15625 -3.96875 C 11.363281 -5.144531 11.226562 -6.09375 10.75 -6.8125 C 10.269531 -7.539062 9.476562 -8.003906 8.375 -8.203125 C 7.144531 -8.421875 6.109375 -8.222656 5.265625 -7.609375 C 4.421875 -7.003906 3.890625 -6.085938 3.671875 -4.859375 L 2.734375 0.484375 L 2.125 0.375 L 3.875 -9.515625 L 4.46875 -9.40625 L 4.03125 -7 C 4.5 -7.707031 5.125 -8.222656 5.90625 -8.546875 C 6.695312 -8.867188 7.578125 -8.941406 8.546875 -8.765625 Z M 8.546875 -8.765625 "/></g></g></g><g fill="#868686" fill-opacity="1"><g transform="translate(14.789687, 21.169847)"><g><path d="M 6.90625 -9.171875 C 8.09375 -8.992188 8.953125 -8.550781 9.484375 -7.84375 C 10.023438 -7.132812 10.207031 -6.195312 10.03125 -5.03125 L 9.046875 1.390625 L 8.4375 1.296875 L 8.75 -0.703125 C 8.320312 -0.109375 7.765625 0.320312 7.078125 0.59375 C 6.390625 0.863281 5.601562 0.929688 4.71875 0.796875 C 3.613281 0.617188 2.785156 0.226562 2.234375 -0.375 C 1.679688 -0.976562 1.472656 -1.703125 1.609375 -2.546875 C 1.734375 -3.347656 2.117188 -3.957031 2.765625 -4.375 C 3.421875 -4.789062 4.378906 -4.90625 5.640625 -4.71875 L 9.265625 -4.15625 L 9.40625 -5.125 C 9.5625 -6.113281 9.421875 -6.90625 8.984375 -7.5 C 8.546875 -8.09375 7.820312 -8.460938 6.8125 -8.609375 C 6.113281 -8.722656 5.4375 -8.703125 4.78125 -8.546875 C 4.132812 -8.398438 3.5625 -8.15625 3.0625 -7.8125 L 2.78125 -8.34375 C 3.332031 -8.707031 3.96875 -8.960938 4.6875 -9.109375 C 5.414062 -9.265625 6.15625 -9.285156 6.90625 -9.171875 Z M 4.859375 0.25 C 6.640625 0.519531 7.972656 -0.0859375 8.859375 -1.578125 L 9.1875 -3.640625 L 5.5625 -4.203125 C 4.539062 -4.359375 3.757812 -4.273438 3.21875 -3.953125 C 2.675781 -3.640625 2.351562 -3.15625 2.25 -2.5 C 2.144531 -1.78125 2.320312 -1.175781 2.78125 -0.6875 C 3.25 -0.195312 3.941406 0.113281 4.859375 0.25 Z M 4.859375 0.25 "/></g></g></g><g fill="#868686" fill-opacity="1"><g transform="translate(25.954077, 22.866341)"><g><path d="M 6.921875 0.28125 C 6.660156 0.46875 6.335938 0.597656 5.953125 0.671875 C 5.578125 0.753906 5.195312 0.769531 4.8125 0.71875 C 4.007812 0.601562 3.421875 0.289062 3.046875 -0.21875 C 2.671875 -0.726562 2.539062 -1.382812 2.65625 -2.1875 L 3.59375 -9.078125 L 1.703125 -9.328125 L 1.765625 -9.890625 L 3.65625 -9.640625 L 3.953125 -11.828125 L 4.578125 -11.734375 L 4.28125 -9.546875 L 7.546875 -9.109375 L 7.484375 -8.546875 L 4.21875 -8.984375 L 3.28125 -2.171875 C 3.195312 -1.503906 3.296875 -0.96875 3.578125 -0.5625 C 3.859375 -0.164062 4.316406 0.0703125 4.953125 0.15625 C 5.597656 0.25 6.164062 0.125 6.65625 -0.21875 Z M 6.921875 0.28125 "/></g></g></g><g fill="#868686" fill-opacity="1"><g transform="translate(33.583264, 23.925876)"><g><path d="M 11.828125 -8.75 L 10.671875 1.234375 L 10.0625 1.171875 L 10.34375 -1.25 C 9.9375 -0.507812 9.367188 0.0351562 8.640625 0.390625 C 7.921875 0.753906 7.085938 0.882812 6.140625 0.78125 C 4.847656 0.625 3.878906 0.144531 3.234375 -0.65625 C 2.585938 -1.457031 2.34375 -2.53125 2.5 -3.875 L 3.171875 -9.75 L 3.8125 -9.671875 L 3.140625 -3.84375 C 3.003906 -2.664062 3.203125 -1.726562 3.734375 -1.03125 C 4.273438 -0.34375 5.109375 0.0664062 6.234375 0.203125 C 7.429688 0.335938 8.414062 0.078125 9.1875 -0.578125 C 9.96875 -1.234375 10.429688 -2.179688 10.578125 -3.421875 L 11.203125 -8.8125 Z M 11.828125 -8.75 "/></g></g></g><g fill="#868686" fill-opacity="1"><g transform="translate(46.504098, 25.402319)"><g><path d="M 3.484375 -7.328125 C 3.867188 -8.085938 4.410156 -8.648438 5.109375 -9.015625 C 5.804688 -9.390625 6.644531 -9.53125 7.625 -9.4375 L 7.5625 -8.796875 L 7.390625 -8.8125 C 6.242188 -8.925781 5.300781 -8.648438 4.5625 -7.984375 C 3.832031 -7.316406 3.40625 -6.335938 3.28125 -5.046875 L 2.765625 0.265625 L 2.140625 0.203125 L 3.109375 -9.796875 L 3.71875 -9.734375 Z M 3.484375 -7.328125 "/></g></g></g><g fill="#868686" fill-opacity="1"><g transform="translate(54.083061, 26.155362)"><g><path d="M 10.796875 -4.09375 L 2.015625 -4.796875 C 1.960938 -3.941406 2.097656 -3.164062 2.421875 -2.46875 C 2.753906 -1.769531 3.242188 -1.203125 3.890625 -0.765625 C 4.546875 -0.335938 5.289062 -0.09375 6.125 -0.03125 C 6.8125 0.0195312 7.445312 -0.0546875 8.03125 -0.265625 C 8.625 -0.472656 9.128906 -0.804688 9.546875 -1.265625 L 9.921875 -0.8125 C 9.429688 -0.320312 8.851562 0.0390625 8.1875 0.28125 C 7.53125 0.519531 6.828125 0.609375 6.078125 0.546875 C 5.097656 0.460938 4.242188 0.175781 3.515625 -0.3125 C 2.785156 -0.800781 2.226562 -1.445312 1.84375 -2.25 C 1.46875 -3.0625 1.316406 -3.957031 1.390625 -4.9375 C 1.472656 -5.914062 1.75 -6.773438 2.21875 -7.515625 C 2.6875 -8.253906 3.296875 -8.8125 4.046875 -9.1875 C 4.796875 -9.5625 5.617188 -9.710938 6.515625 -9.640625 C 7.390625 -9.566406 8.164062 -9.285156 8.84375 -8.796875 C 9.53125 -8.316406 10.046875 -7.679688 10.390625 -6.890625 C 10.742188 -6.109375 10.882812 -5.234375 10.8125 -4.265625 Z M 6.46875 -9.0625 C 5.71875 -9.125 5.023438 -9.003906 4.390625 -8.703125 C 3.753906 -8.398438 3.234375 -7.953125 2.828125 -7.359375 C 2.429688 -6.765625 2.179688 -6.082031 2.078125 -5.3125 L 10.234375 -4.65625 C 10.242188 -5.445312 10.085938 -6.164062 9.765625 -6.8125 C 9.453125 -7.457031 9.007812 -7.976562 8.4375 -8.375 C 7.875 -8.769531 7.21875 -9 6.46875 -9.0625 Z M 6.46875 -9.0625 "/></g></g></g><g fill="#868686" fill-opacity="1"><g transform="translate(65.604566, 27.060134)"><g><path d="M 8.734375 -0.046875 L 8.703125 0.515625 L 0.875 0.046875 L 0.90625 -0.390625 L 8.3125 -9 L 1.53125 -9.40625 L 1.5625 -9.96875 L 9.1875 -9.515625 L 9.171875 -9.078125 L 1.734375 -0.453125 Z M 8.734375 -0.046875 "/></g></g></g><g fill="#868686" fill-opacity="1"><g transform="translate(75.303782, 27.646586)"><g><path d="M 5.84375 -9.890625 C 7.039062 -9.835938 7.945312 -9.488281 8.5625 -8.84375 C 9.175781 -8.207031 9.460938 -7.300781 9.421875 -6.125 L 9.15625 0.375 L 8.53125 0.34375 L 8.609375 -1.671875 C 8.265625 -1.035156 7.765625 -0.546875 7.109375 -0.203125 C 6.460938 0.140625 5.691406 0.289062 4.796875 0.25 C 3.671875 0.207031 2.800781 -0.0820312 2.1875 -0.625 C 1.570312 -1.164062 1.28125 -1.863281 1.3125 -2.71875 C 1.34375 -3.53125 1.65625 -4.175781 2.25 -4.65625 C 2.851562 -5.144531 3.796875 -5.363281 5.078125 -5.3125 L 8.734375 -5.171875 L 8.78125 -6.15625 C 8.820312 -7.15625 8.59375 -7.921875 8.09375 -8.453125 C 7.59375 -8.984375 6.832031 -9.269531 5.8125 -9.3125 C 5.101562 -9.34375 4.429688 -9.25 3.796875 -9.03125 C 3.171875 -8.820312 2.628906 -8.515625 2.171875 -8.109375 L 1.828125 -8.59375 C 2.335938 -9.03125 2.941406 -9.363281 3.640625 -9.59375 C 4.347656 -9.820312 5.082031 -9.921875 5.84375 -9.890625 Z M 4.859375 -0.28125 C 6.660156 -0.207031 7.921875 -0.96875 8.640625 -2.5625 L 8.71875 -4.65625 L 5.0625 -4.796875 C 4.019531 -4.835938 3.25 -4.671875 2.75 -4.296875 C 2.25 -3.921875 1.984375 -3.398438 1.953125 -2.734375 C 1.921875 -2.003906 2.164062 -1.421875 2.6875 -0.984375 C 3.207031 -0.554688 3.929688 -0.320312 4.859375 -0.28125 Z M 4.859375 -0.28125 "/></g></g></g><g fill="#868686" fill-opacity="1"><g transform="translate(86.572953, 28.077955)"><g/></g></g><g fill="#868686" fill-opacity="1"><g transform="translate(91.564873, 28.234685)"><g><path d="M 11.875 0.296875 L 9.84375 -1.90625 C 8.78125 -0.53125 7.28125 0.144531 5.34375 0.125 C 4.5 0.113281 3.753906 -0.03125 3.109375 -0.3125 C 2.472656 -0.59375 1.972656 -0.988281 1.609375 -1.5 C 1.242188 -2.007812 1.066406 -2.59375 1.078125 -3.25 C 1.085938 -4.03125 1.363281 -4.742188 1.90625 -5.390625 C 2.445312 -6.035156 3.382812 -6.742188 4.71875 -7.515625 L 4.625 -7.640625 C 3.957031 -8.359375 3.503906 -8.945312 3.265625 -9.40625 C 3.035156 -9.863281 2.925781 -10.363281 2.9375 -10.90625 C 2.9375 -11.71875 3.210938 -12.363281 3.765625 -12.84375 C 4.316406 -13.332031 5.054688 -13.570312 5.984375 -13.5625 C 6.867188 -13.5625 7.5625 -13.335938 8.0625 -12.890625 C 8.570312 -12.441406 8.828125 -11.828125 8.828125 -11.046875 C 8.816406 -10.390625 8.578125 -9.800781 8.109375 -9.28125 C 7.648438 -8.769531 6.8125 -8.148438 5.59375 -7.421875 L 9.828125 -2.8125 C 10.296875 -3.625 10.632812 -4.570312 10.84375 -5.65625 L 11.390625 -5.5 C 11.140625 -4.257812 10.742188 -3.226562 10.203125 -2.40625 L 12.296875 -0.125 Z M 3.5625 -10.90625 C 3.550781 -10.457031 3.65625 -10.023438 3.875 -9.609375 C 4.09375 -9.191406 4.523438 -8.625 5.171875 -7.90625 L 5.25 -7.828125 C 6.019531 -8.273438 6.617188 -8.664062 7.046875 -9 C 7.472656 -9.332031 7.773438 -9.660156 7.953125 -9.984375 C 8.128906 -10.304688 8.222656 -10.660156 8.234375 -11.046875 C 8.234375 -11.640625 8.035156 -12.117188 7.640625 -12.484375 C 7.253906 -12.847656 6.703125 -13.03125 5.984375 -13.03125 C 5.242188 -13.039062 4.65625 -12.847656 4.21875 -12.453125 C 3.78125 -12.066406 3.5625 -11.550781 3.5625 -10.90625 Z M 5.359375 -0.421875 C 7.117188 -0.398438 8.488281 -1.03125 9.46875 -2.3125 L 5.09375 -7.109375 C 4.226562 -6.609375 3.550781 -6.15625 3.0625 -5.75 C 2.570312 -5.351562 2.222656 -4.957031 2.015625 -4.5625 C 1.816406 -4.175781 1.71875 -3.753906 1.71875 -3.296875 C 1.707031 -2.441406 2.035156 -1.75 2.703125 -1.21875 C 3.378906 -0.695312 4.265625 -0.429688 5.359375 -0.421875 Z M 5.359375 -0.421875 "/></g></g></g><g fill="#868686" fill-opacity="1"><g transform="translate(104.107124, 28.320862)"><g/></g></g><g fill="#868686" fill-opacity="1"><g transform="translate(109.09114, 28.307112)"><g><path d="M 6 -0.0625 C 5.039062 -0.0390625 4.175781 -0.238281 3.40625 -0.65625 C 2.644531 -1.070312 2.039062 -1.660156 1.59375 -2.421875 C 1.144531 -3.191406 0.910156 -4.066406 0.890625 -5.046875 C 0.867188 -6.023438 1.066406 -6.90625 1.484375 -7.6875 C 1.898438 -8.476562 2.476562 -9.097656 3.21875 -9.546875 C 3.96875 -9.992188 4.820312 -10.226562 5.78125 -10.25 C 6.539062 -10.269531 7.25 -10.140625 7.90625 -9.859375 C 8.5625 -9.578125 9.109375 -9.160156 9.546875 -8.609375 L 9.0625 -8.203125 C 8.6875 -8.691406 8.21875 -9.0625 7.65625 -9.3125 C 7.09375 -9.5625 6.472656 -9.675781 5.796875 -9.65625 C 4.972656 -9.632812 4.234375 -9.425781 3.578125 -9.03125 C 2.921875 -8.632812 2.410156 -8.09375 2.046875 -7.40625 C 1.679688 -6.71875 1.507812 -5.9375 1.53125 -5.0625 C 1.550781 -4.1875 1.753906 -3.410156 2.140625 -2.734375 C 2.535156 -2.066406 3.066406 -1.546875 3.734375 -1.171875 C 4.410156 -0.796875 5.160156 -0.617188 5.984375 -0.640625 C 6.660156 -0.660156 7.273438 -0.804688 7.828125 -1.078125 C 8.378906 -1.347656 8.832031 -1.738281 9.1875 -2.25 L 9.6875 -1.875 C 9.28125 -1.289062 8.753906 -0.847656 8.109375 -0.546875 C 7.460938 -0.242188 6.757812 -0.0820312 6 -0.0625 Z M 6 -0.0625 "/></g></g></g><g fill="#868686" fill-opacity="1"><g transform="translate(119.801447, 28.058988)"><g><path d="M 1.796875 -10.125 L 2.421875 -10.140625 L 2.78125 -0.09375 L 2.15625 -0.078125 Z M 2 -12.765625 C 1.832031 -12.753906 1.679688 -12.804688 1.546875 -12.921875 C 1.410156 -13.035156 1.34375 -13.175781 1.34375 -13.34375 C 1.332031 -13.53125 1.382812 -13.6875 1.5 -13.8125 C 1.625 -13.9375 1.773438 -14.003906 1.953125 -14.015625 C 2.117188 -14.015625 2.269531 -13.957031 2.40625 -13.84375 C 2.539062 -13.726562 2.613281 -13.582031 2.625 -13.40625 C 2.625 -13.238281 2.5625 -13.085938 2.4375 -12.953125 C 2.3125 -12.828125 2.164062 -12.765625 2 -12.765625 Z M 2 -12.765625 "/></g></g></g><g fill="#868686" fill-opacity="1"><g transform="translate(124.826625, 27.903803)"><g><path d="M 10.171875 -5.46875 L 1.375 -5.015625 C 1.425781 -4.160156 1.664062 -3.40625 2.09375 -2.75 C 2.519531 -2.101562 3.078125 -1.609375 3.765625 -1.265625 C 4.460938 -0.929688 5.222656 -0.785156 6.046875 -0.828125 C 6.734375 -0.859375 7.359375 -1.015625 7.921875 -1.296875 C 8.492188 -1.585938 8.953125 -1.988281 9.296875 -2.5 L 9.734375 -2.09375 C 9.304688 -1.539062 8.773438 -1.101562 8.140625 -0.78125 C 7.515625 -0.457031 6.828125 -0.28125 6.078125 -0.25 C 5.109375 -0.195312 4.226562 -0.367188 3.4375 -0.765625 C 2.65625 -1.160156 2.019531 -1.734375 1.53125 -2.484375 C 1.050781 -3.234375 0.789062 -4.097656 0.75 -5.078125 C 0.695312 -6.046875 0.851562 -6.925781 1.21875 -7.71875 C 1.582031 -8.519531 2.113281 -9.15625 2.8125 -9.625 C 3.519531 -10.09375 4.320312 -10.351562 5.21875 -10.40625 C 6.082031 -10.445312 6.882812 -10.269531 7.625 -9.875 C 8.363281 -9.488281 8.957031 -8.925781 9.40625 -8.1875 C 9.863281 -7.445312 10.113281 -6.597656 10.15625 -5.640625 Z M 5.25 -9.828125 C 4.5 -9.785156 3.828125 -9.570312 3.234375 -9.1875 C 2.640625 -8.8125 2.175781 -8.300781 1.84375 -7.65625 C 1.519531 -7.019531 1.359375 -6.3125 1.359375 -5.53125 L 9.53125 -5.953125 C 9.4375 -6.722656 9.191406 -7.410156 8.796875 -8.015625 C 8.398438 -8.617188 7.894531 -9.078125 7.28125 -9.390625 C 6.664062 -9.710938 5.988281 -9.859375 5.25 -9.828125 Z M 7.203125 -12.125 L 5.03125 -13.78125 L 3.03125 -11.921875 L 2.328125 -11.890625 L 4.609375 -14.1875 L 5.40625 -14.234375 L 7.921875 -12.171875 Z M 7.203125 -12.125 "/></g></g></g><g fill="#868686" fill-opacity="1"><g transform="translate(136.388176, 27.322219)"><g><path d="M 6.125 -10.59375 C 7.363281 -10.6875 8.375 -10.394531 9.15625 -9.71875 C 9.9375 -9.050781 10.375 -8.039062 10.46875 -6.6875 L 10.90625 -0.796875 L 10.265625 -0.75 L 9.828125 -6.59375 C 9.742188 -7.78125 9.378906 -8.664062 8.734375 -9.25 C 8.097656 -9.832031 7.222656 -10.082031 6.109375 -10 C 4.859375 -9.90625 3.898438 -9.460938 3.234375 -8.671875 C 2.578125 -7.878906 2.296875 -6.859375 2.390625 -5.609375 L 2.78125 -0.203125 L 2.15625 -0.15625 L 1.421875 -10.171875 L 2.03125 -10.21875 L 2.203125 -7.78125 C 2.460938 -8.570312 2.929688 -9.21875 3.609375 -9.71875 C 4.296875 -10.226562 5.132812 -10.519531 6.125 -10.59375 Z M 6.125 -10.59375 "/></g></g></g><g fill="#868686" fill-opacity="1"><g transform="translate(149.452181, 26.346001)"><g><path d="M 5.96875 -0.515625 C 5.019531 -0.421875 4.144531 -0.550781 3.34375 -0.90625 C 2.550781 -1.269531 1.90625 -1.816406 1.40625 -2.546875 C 0.90625 -3.273438 0.609375 -4.128906 0.515625 -5.109375 C 0.421875 -6.078125 0.550781 -6.96875 0.90625 -7.78125 C 1.257812 -8.59375 1.789062 -9.25 2.5 -9.75 C 3.21875 -10.257812 4.050781 -10.5625 5 -10.65625 C 5.757812 -10.726562 6.476562 -10.644531 7.15625 -10.40625 C 7.832031 -10.175781 8.40625 -9.804688 8.875 -9.296875 L 8.421875 -8.84375 C 8.015625 -9.300781 7.519531 -9.632812 6.9375 -9.84375 C 6.363281 -10.050781 5.738281 -10.125 5.0625 -10.0625 C 4.25 -9.976562 3.523438 -9.710938 2.890625 -9.265625 C 2.265625 -8.828125 1.796875 -8.25 1.484375 -7.53125 C 1.179688 -6.820312 1.070312 -6.035156 1.15625 -5.171875 C 1.238281 -4.296875 1.5 -3.535156 1.9375 -2.890625 C 2.375 -2.253906 2.941406 -1.773438 3.640625 -1.453125 C 4.347656 -1.128906 5.109375 -1.007812 5.921875 -1.09375 C 6.597656 -1.15625 7.195312 -1.34375 7.71875 -1.65625 C 8.25 -1.96875 8.675781 -2.382812 9 -2.90625 L 9.515625 -2.59375 C 9.148438 -1.976562 8.65625 -1.492188 8.03125 -1.140625 C 7.414062 -0.796875 6.726562 -0.585938 5.96875 -0.515625 Z M 5.96875 -0.515625 "/></g></g></g><g fill="#868686" fill-opacity="1"><g transform="translate(160.114549, 25.304)"><g><path d="M 1.03125 -10.21875 L 1.65625 -10.296875 L 2.765625 -0.3125 L 2.140625 -0.234375 Z M 1.046875 -12.875 C 0.878906 -12.851562 0.722656 -12.894531 0.578125 -13 C 0.429688 -13.113281 0.351562 -13.253906 0.34375 -13.421875 C 0.320312 -13.609375 0.363281 -13.765625 0.46875 -13.890625 C 0.582031 -14.023438 0.726562 -14.101562 0.90625 -14.125 C 1.070312 -14.144531 1.226562 -14.101562 1.375 -14 C 1.519531 -13.894531 1.601562 -13.753906 1.625 -13.578125 C 1.632812 -13.410156 1.582031 -13.253906 1.46875 -13.109375 C 1.351562 -12.972656 1.210938 -12.894531 1.046875 -12.875 Z M 1.046875 -12.875 "/></g></g></g><g fill="#868686" fill-opacity="1"><g transform="translate(165.112825, 24.775772)"><g><path d="M 4.125 -10.71875 C 5.3125 -10.875 6.257812 -10.679688 6.96875 -10.140625 C 7.6875 -9.609375 8.117188 -8.757812 8.265625 -7.59375 L 9.078125 -1.140625 L 8.46875 -1.0625 L 8.21875 -3.0625 C 7.976562 -2.375 7.5625 -1.804688 6.96875 -1.359375 C 6.382812 -0.921875 5.648438 -0.644531 4.765625 -0.53125 C 3.640625 -0.394531 2.726562 -0.539062 2.03125 -0.96875 C 1.34375 -1.40625 0.945312 -2.050781 0.84375 -2.90625 C 0.738281 -3.707031 0.941406 -4.394531 1.453125 -4.96875 C 1.972656 -5.539062 2.867188 -5.910156 4.140625 -6.078125 L 7.765625 -6.53125 L 7.640625 -7.515625 C 7.515625 -8.503906 7.160156 -9.21875 6.578125 -9.65625 C 6.003906 -10.101562 5.207031 -10.265625 4.1875 -10.140625 C 3.488281 -10.054688 2.847656 -9.851562 2.265625 -9.53125 C 1.679688 -9.21875 1.195312 -8.828125 0.8125 -8.359375 L 0.390625 -8.78125 C 0.828125 -9.289062 1.367188 -9.71875 2.015625 -10.0625 C 2.671875 -10.40625 3.375 -10.625 4.125 -10.71875 Z M 4.75 -1.09375 C 6.53125 -1.3125 7.644531 -2.265625 8.09375 -3.953125 L 7.828125 -6.03125 L 4.203125 -5.578125 C 3.160156 -5.441406 2.425781 -5.144531 2 -4.6875 C 1.570312 -4.238281 1.398438 -3.6875 1.484375 -3.03125 C 1.566406 -2.300781 1.898438 -1.765625 2.484375 -1.421875 C 3.066406 -1.085938 3.820312 -0.976562 4.75 -1.09375 Z M 4.75 -1.09375 "/></g></g></g></g></g><g transform="matrix(1, 0, 0, 1, 45, 303)"><g clip-path="url(#c33cd2e894)"><g fill="#34ab53" fill-opacity="1"><g transform="translate(0.323544, 42.28304)"><g><path d="M 2.828125 0 L 2.828125 -40.3125 L 6.046875 -40.3125 L 6.046875 -24.90625 C 6.046875 -24.238281 6.164062 -23.90625 6.40625 -23.90625 C 6.570312 -23.90625 6.867188 -24.09375 7.296875 -24.46875 C 8.742188 -25.863281 10.285156 -26.914062 11.921875 -27.625 C 13.566406 -28.34375 15.4375 -28.703125 17.53125 -28.703125 C 19.570312 -28.703125 21.363281 -28.304688 22.90625 -27.515625 C 24.457031 -26.722656 25.671875 -25.625 26.546875 -24.21875 C 27.421875 -22.820312 27.859375 -21.210938 27.859375 -19.390625 L 27.859375 0 L 24.625 0 L 24.625 -19.3125 C 24.625 -21.21875 24.257812 -22.800781 23.53125 -24.0625 C 22.8125 -25.332031 21.859375 -26.285156 20.671875 -26.921875 C 19.492188 -27.566406 18.234375 -27.890625 16.890625 -27.890625 C 15.546875 -27.890625 14.226562 -27.632812 12.9375 -27.125 C 11.644531 -26.613281 10.484375 -25.921875 9.453125 -25.046875 C 8.421875 -24.179688 7.59375 -23.195312 6.96875 -22.09375 C 6.351562 -20.988281 6.046875 -19.847656 6.046875 -18.671875 L 6.046875 0 Z M 2.828125 0 "/></g></g></g><g fill="#34ab53" fill-opacity="1"><g transform="translate(37.775929, 42.28304)"><g><path d="M 15.890625 0.8125 C 13.203125 0.8125 10.816406 0.207031 8.734375 -1 C 6.648438 -2.21875 5.007812 -3.929688 3.8125 -6.140625 C 2.613281 -8.359375 2.015625 -10.988281 2.015625 -14.03125 C 2.015625 -16.039062 2.40625 -17.925781 3.1875 -19.6875 C 3.96875 -21.445312 5.035156 -23.003906 6.390625 -24.359375 C 7.742188 -25.722656 9.3125 -26.785156 11.09375 -27.546875 C 12.882812 -28.316406 14.800781 -28.703125 16.84375 -28.703125 C 18.25 -28.703125 19.625 -28.492188 20.96875 -28.078125 C 22.3125 -27.660156 23.425781 -27.015625 24.3125 -26.140625 C 25.195312 -25.265625 25.640625 -24.144531 25.640625 -22.78125 C 25.640625 -21.300781 25.179688 -19.9375 24.265625 -18.6875 C 23.347656 -17.4375 22.101562 -16.347656 20.53125 -15.421875 C 18.96875 -14.492188 17.195312 -13.773438 15.21875 -13.265625 C 13.238281 -12.753906 11.175781 -12.5 9.03125 -12.5 C 8.757812 -12.5 8.507812 -12.5 8.28125 -12.5 C 8.050781 -12.5 7.832031 -12.5 7.625 -12.5 C 7 -12.519531 6.523438 -12.351562 6.203125 -12 C 5.878906 -11.65625 5.773438 -11.203125 5.890625 -10.640625 C 6.535156 -7.441406 7.796875 -4.9375 9.671875 -3.125 C 11.554688 -1.3125 13.9375 -0.40625 16.8125 -0.40625 C 19.039062 -0.40625 20.878906 -0.960938 22.328125 -2.078125 C 23.785156 -3.191406 24.847656 -4.5 25.515625 -6 L 26.359375 -5.515625 C 25.453125 -3.585938 24.15625 -2.050781 22.46875 -0.90625 C 20.789062 0.238281 18.597656 0.8125 15.890625 0.8125 Z M 5.484375 -15.234375 C 5.453125 -14.773438 5.578125 -14.351562 5.859375 -13.96875 C 6.140625 -13.582031 6.5 -13.359375 6.9375 -13.296875 C 7.226562 -13.273438 7.539062 -13.242188 7.875 -13.203125 C 8.21875 -13.160156 8.585938 -13.140625 8.984375 -13.140625 C 10.035156 -13.140625 11.171875 -13.28125 12.390625 -13.5625 C 13.617188 -13.84375 14.816406 -14.25 15.984375 -14.78125 C 17.148438 -15.320312 18.21875 -15.976562 19.1875 -16.75 C 20.15625 -17.519531 20.925781 -18.382812 21.5 -19.34375 C 22.082031 -20.3125 22.375 -21.363281 22.375 -22.5 C 22.375 -23.65625 22.101562 -24.632812 21.5625 -25.4375 C 21.03125 -26.238281 20.332031 -26.847656 19.46875 -27.265625 C 18.613281 -27.679688 17.6875 -27.890625 16.6875 -27.890625 C 14.9375 -27.890625 13.375 -27.535156 12 -26.828125 C 10.632812 -26.117188 9.472656 -25.164062 8.515625 -23.96875 C 7.566406 -22.769531 6.835938 -21.414062 6.328125 -19.90625 C 5.816406 -18.40625 5.535156 -16.847656 5.484375 -15.234375 Z M 5.484375 -15.234375 "/></g></g></g><g fill="#34ab53" fill-opacity="1"><g transform="translate(72.325766, 42.28304)"><g><path d="M 2.828125 -27.890625 L 6.046875 -27.890625 L 6.046875 -22.859375 C 6.046875 -22.210938 6.140625 -21.890625 6.328125 -21.890625 C 6.492188 -21.890625 6.738281 -22.117188 7.0625 -22.578125 C 7.726562 -23.492188 8.570312 -24.421875 9.59375 -25.359375 C 10.613281 -26.296875 11.816406 -27.085938 13.203125 -27.734375 C 14.585938 -28.378906 16.113281 -28.703125 17.78125 -28.703125 C 19.226562 -28.703125 20.460938 -28.46875 21.484375 -28 C 22.503906 -27.53125 23.015625 -26.929688 23.015625 -26.203125 C 23.015625 -25.960938 22.921875 -25.65625 22.734375 -25.28125 C 22.546875 -24.90625 22.144531 -24.71875 21.53125 -24.71875 C 20.988281 -24.71875 20.519531 -24.8125 20.125 -25 C 19.738281 -25.1875 19.347656 -25.398438 18.953125 -25.640625 C 18.566406 -25.878906 18.125 -26.09375 17.625 -26.28125 C 17.132812 -26.46875 16.5 -26.5625 15.71875 -26.5625 C 14.507812 -26.5625 13.328125 -26.304688 12.171875 -25.796875 C 11.015625 -25.285156 9.976562 -24.585938 9.0625 -23.703125 C 8.15625 -22.816406 7.425781 -21.800781 6.875 -20.65625 C 6.320312 -19.519531 6.046875 -18.316406 6.046875 -17.046875 L 6.046875 0 L 2.828125 0 Z M 2.828125 -27.890625 "/></g></g></g><g fill="#34ab53" fill-opacity="1"><g transform="translate(102.11866, 42.28304)"><g><path d="M 2.828125 -40.3125 L 5.8125 -40.3125 L 5.8125 -26.8125 C 5.8125 -25.65625 6.023438 -25.078125 6.453125 -25.078125 C 6.773438 -25.078125 7.3125 -25.382812 8.0625 -26 C 8.945312 -26.75 10.023438 -27.382812 11.296875 -27.90625 C 12.578125 -28.4375 14.226562 -28.703125 16.25 -28.703125 C 18.800781 -28.703125 20.945312 -28.085938 22.6875 -26.859375 C 24.4375 -25.640625 25.769531 -23.984375 26.6875 -21.890625 C 27.601562 -19.796875 28.0625 -17.429688 28.0625 -14.796875 C 28.0625 -13.078125 27.8125 -11.34375 27.3125 -9.59375 C 26.8125 -7.84375 26.050781 -6.242188 25.03125 -4.796875 C 24.007812 -3.347656 22.71875 -2.1875 21.15625 -1.3125 C 19.601562 -0.4375 17.78125 0 15.6875 0 L 2.828125 0 Z M 6.125 -20.4375 L 6.125 -2.828125 C 6.125 -2.234375 6.3125 -1.75 6.6875 -1.375 C 7.0625 -1 7.546875 -0.8125 8.140625 -0.8125 L 12.78125 -0.8125 C 14.90625 -0.8125 16.722656 -1.195312 18.234375 -1.96875 C 19.753906 -2.75 21 -3.804688 21.96875 -5.140625 C 22.9375 -6.472656 23.648438 -7.960938 24.109375 -9.609375 C 24.566406 -11.265625 24.796875 -12.976562 24.796875 -14.75 C 24.796875 -16.445312 24.554688 -18.066406 24.078125 -19.609375 C 23.609375 -21.160156 22.953125 -22.546875 22.109375 -23.765625 C 21.265625 -24.984375 20.253906 -25.941406 19.078125 -26.640625 C 17.910156 -27.335938 16.628906 -27.6875 15.234375 -27.6875 C 13.921875 -27.6875 12.664062 -27.453125 11.46875 -26.984375 C 10.269531 -26.515625 9.234375 -25.890625 8.359375 -25.109375 C 7.492188 -24.335938 6.859375 -23.476562 6.453125 -22.53125 C 6.234375 -22.019531 6.125 -21.320312 6.125 -20.4375 Z M 6.125 -20.4375 "/></g></g></g><g fill="#34ab53" fill-opacity="1"><g transform="translate(138.966344, 42.28304)"><g><path d="M 15.6875 0.8125 C 12.96875 0.8125 10.578125 0.203125 8.515625 -1.015625 C 6.460938 -2.242188 4.863281 -3.96875 3.71875 -6.1875 C 2.582031 -8.40625 2.015625 -10.992188 2.015625 -13.953125 C 2.015625 -16.898438 2.582031 -19.484375 3.71875 -21.703125 C 4.863281 -23.921875 6.460938 -25.640625 8.515625 -26.859375 C 10.578125 -28.085938 12.96875 -28.703125 15.6875 -28.703125 C 18.425781 -28.703125 20.816406 -28.085938 22.859375 -26.859375 C 24.898438 -25.640625 26.488281 -23.921875 27.625 -21.703125 C 28.769531 -19.484375 29.34375 -16.898438 29.34375 -13.953125 C 29.34375 -10.992188 28.769531 -8.40625 27.625 -6.1875 C 26.488281 -3.96875 24.898438 -2.242188 22.859375 -1.015625 C 20.816406 0.203125 18.425781 0.8125 15.6875 0.8125 Z M 5.328125 -13.953125 C 5.328125 -11.148438 5.753906 -8.703125 6.609375 -6.609375 C 7.472656 -4.515625 8.679688 -2.890625 10.234375 -1.734375 C 11.796875 -0.578125 13.613281 0 15.6875 0 C 17.75 0 19.5625 -0.578125 21.125 -1.734375 C 22.6875 -2.890625 23.894531 -4.515625 24.75 -6.609375 C 25.613281 -8.703125 26.046875 -11.148438 26.046875 -13.953125 C 26.046875 -16.742188 25.613281 -19.1875 24.75 -21.28125 C 23.894531 -23.375 22.6875 -25 21.125 -26.15625 C 19.5625 -27.3125 17.75 -27.890625 15.6875 -27.890625 C 13.613281 -27.890625 11.796875 -27.3125 10.234375 -26.15625 C 8.679688 -25 7.472656 -23.375 6.609375 -21.28125 C 5.753906 -19.1875 5.328125 -16.742188 5.328125 -13.953125 Z M 5.328125 -13.953125 "/></g></g></g><g fill="#34ab53" fill-opacity="1"><g transform="translate(177.104054, 42.28304)"><g><path d="M 6.046875 0 L 2.828125 0 L 2.828125 -40.3125 L 6.046875 -40.3125 Z M 6.046875 0 "/></g></g></g><g fill="#34ab53" fill-opacity="1"><g transform="translate(192.747047, 42.28304)"><g><path d="M 15.6875 0.8125 C 12.96875 0.8125 10.578125 0.203125 8.515625 -1.015625 C 6.460938 -2.242188 4.863281 -3.96875 3.71875 -6.1875 C 2.582031 -8.40625 2.015625 -10.992188 2.015625 -13.953125 C 2.015625 -16.898438 2.582031 -19.484375 3.71875 -21.703125 C 4.863281 -23.921875 6.460938 -25.640625 8.515625 -26.859375 C 10.578125 -28.085938 12.96875 -28.703125 15.6875 -28.703125 C 18.425781 -28.703125 20.816406 -28.085938 22.859375 -26.859375 C 24.898438 -25.640625 26.488281 -23.921875 27.625 -21.703125 C 28.769531 -19.484375 29.34375 -16.898438 29.34375 -13.953125 C 29.34375 -10.992188 28.769531 -8.40625 27.625 -6.1875 C 26.488281 -3.96875 24.898438 -2.242188 22.859375 -1.015625 C 20.816406 0.203125 18.425781 0.8125 15.6875 0.8125 Z M 5.328125 -13.953125 C 5.328125 -11.148438 5.753906 -8.703125 6.609375 -6.609375 C 7.472656 -4.515625 8.679688 -2.890625 10.234375 -1.734375 C 11.796875 -0.578125 13.613281 0 15.6875 0 C 17.75 0 19.5625 -0.578125 21.125 -1.734375 C 22.6875 -2.890625 23.894531 -4.515625 24.75 -6.609375 C 25.613281 -8.703125 26.046875 -11.148438 26.046875 -13.953125 C 26.046875 -16.742188 25.613281 -19.1875 24.75 -21.28125 C 23.894531 -23.375 22.6875 -25 21.125 -26.15625 C 19.5625 -27.3125 17.75 -27.890625 15.6875 -27.890625 C 13.613281 -27.890625 11.796875 -27.3125 10.234375 -26.15625 C 8.679688 -25 7.472656 -23.375 6.609375 -21.28125 C 5.753906 -19.1875 5.328125 -16.742188 5.328125 -13.953125 Z M 5.328125 -13.953125 "/></g></g></g><g clip-path="url(#8fecb5a848)"><g fill="#34ab53" fill-opacity="1"><g transform="translate(230.884744, 42.28304)"><g><path d="M 13.1875 0.8125 C 11.570312 0.8125 10.09375 0.445312 8.75 -0.28125 C 7.40625 -1.007812 6.226562 -2 5.21875 -3.25 C 4.207031 -4.5 3.425781 -5.910156 2.875 -7.484375 C 2.332031 -9.054688 2.0625 -10.6875 2.0625 -12.375 C 2.0625 -14.738281 2.488281 -16.875 3.34375 -18.78125 C 4.207031 -20.6875 5.378906 -22.316406 6.859375 -23.671875 C 8.335938 -25.035156 10.035156 -26.078125 11.953125 -26.796875 C 13.867188 -27.523438 15.878906 -27.890625 17.984375 -27.890625 L 27.296875 -27.890625 L 27.296875 -0.40625 C 27.296875 0.988281 27.164062 2.4375 26.90625 3.9375 C 26.65625 5.445312 26.234375 6.898438 25.640625 8.296875 C 25.046875 9.703125 24.242188 10.960938 23.234375 12.078125 C 22.234375 13.191406 21 14.078125 19.53125 14.734375 C 18.0625 15.390625 16.304688 15.71875 14.265625 15.71875 C 12.390625 15.71875 10.691406 15.414062 9.171875 14.8125 C 7.648438 14.207031 6.328125 13.367188 5.203125 12.296875 L 5.71875 11.6875 C 6.039062 11.925781 6.550781 12.304688 7.25 12.828125 C 7.945312 13.359375 8.878906 13.835938 10.046875 14.265625 C 11.222656 14.703125 12.644531 14.921875 14.3125 14.921875 C 15.738281 14.921875 17.054688 14.550781 18.265625 13.8125 C 19.472656 13.070312 20.523438 12.035156 21.421875 10.703125 C 22.328125 9.367188 23.035156 7.804688 23.546875 6.015625 C 24.054688 4.234375 24.3125 2.304688 24.3125 0.234375 L 24.3125 -1.09375 C 24.3125 -2.25 24.09375 -2.828125 23.65625 -2.828125 C 23.34375 -2.828125 22.804688 -2.515625 22.046875 -1.890625 C 20.941406 -0.984375 19.628906 -0.304688 18.109375 0.140625 C 16.597656 0.585938 14.957031 0.8125 13.1875 0.8125 Z M 18.09375 -27.09375 C 15.28125 -27.09375 12.925781 -26.488281 11.03125 -25.28125 C 9.132812 -24.070312 7.707031 -22.363281 6.75 -20.15625 C 5.800781 -17.945312 5.328125 -15.367188 5.328125 -12.421875 C 5.328125 -10.160156 5.710938 -8.109375 6.484375 -6.265625 C 7.265625 -4.421875 8.351562 -2.945312 9.75 -1.84375 C 11.15625 -0.75 12.796875 -0.203125 14.671875 -0.203125 C 16.117188 -0.203125 17.445312 -0.4375 18.65625 -0.90625 C 19.875 -1.375 20.914062 -2 21.78125 -2.78125 C 22.65625 -3.5625 23.28125 -4.421875 23.65625 -5.359375 C 23.875 -5.867188 23.984375 -6.566406 23.984375 -7.453125 L 23.984375 -25.078125 C 23.984375 -25.691406 23.800781 -26.179688 23.4375 -26.546875 C 23.070312 -26.910156 22.582031 -27.09375 21.96875 -27.09375 Z M 18.09375 -27.09375 "/></g></g></g></g><g clip-path="url(#6e0d944061)"><g fill="#34ab53" fill-opacity="1"><g transform="translate(267.77276, 42.28304)"><g><path d="M -0.046875 -27.890625 L 3.59375 -27.890625 L 13.578125 -2.859375 C 13.796875 -2.296875 14.023438 -2.015625 14.265625 -2.015625 C 14.535156 -2.015625 14.753906 -2.3125 14.921875 -2.90625 L 22.25 -27.890625 L 25.84375 -27.890625 L 14.71875 0 C 14.445312 0.78125 14.078125 1.816406 13.609375 3.109375 C 13.140625 4.398438 12.5625 5.765625 11.875 7.203125 C 11.1875 8.640625 10.367188 10.007812 9.421875 11.3125 C 8.484375 12.613281 7.40625 13.671875 6.1875 14.484375 C 4.96875 15.304688 3.601562 15.71875 2.09375 15.71875 L 0.28125 15.71875 L 0.28125 12.65625 L 2.859375 12.65625 C 4.285156 12.65625 5.554688 12.304688 6.671875 11.609375 C 7.785156 10.910156 8.75 10.007812 9.5625 8.90625 C 10.382812 7.800781 11.097656 6.625 11.703125 5.375 C 12.316406 4.125 12.835938 2.960938 13.265625 1.890625 C 13.472656 1.328125 13.460938 0.867188 13.234375 0.515625 C 13.015625 0.171875 12.59375 0 11.96875 0 L 11.09375 0 Z M -0.046875 -27.890625 "/></g></g></g></g></g></g></svg>