<svg xmlns="http://www.w3.org/2000/svg" xmlns:xlink="http://www.w3.org/1999/xlink" width="600" zoomAndPan="magnify" viewBox="0 0 450 135.000003" height="180" preserveAspectRatio="xMidYMid meet" version="1.0"><defs><g/><clipPath id="f1385e1c86"><path d="M 46.050781 22.675781 L 85.972656 22.675781 L 85.972656 107.855469 L 46.050781 107.855469 Z M 46.050781 22.675781 " clip-rule="nonzero"/></clipPath><clipPath id="bfe12b3893"><path d="M 21.707031 75.292969 L 62.335938 19.851562 L 110.464844 55.117188 L 69.835938 110.558594 Z M 21.707031 75.292969 " clip-rule="nonzero"/></clipPath><clipPath id="4a74ae9e15"><path d="M 21.707031 75.292969 L 62.335938 19.851562 L 110.464844 55.117188 L 69.835938 110.558594 Z M 21.707031 75.292969 " clip-rule="nonzero"/></clipPath><clipPath id="c9917c7d76"><path d="M 21.707031 75.292969 L 62.335938 19.851562 L 110.464844 55.117188 L 69.835938 110.558594 Z M 21.707031 75.292969 " clip-rule="nonzero"/></clipPath><clipPath id="08d4c82a74"><path d="M 72.78125 73.839844 L 119.988281 73.839844 L 119.988281 109.542969 L 72.78125 109.542969 Z M 72.78125 73.839844 " clip-rule="nonzero"/></clipPath><clipPath id="d5e0c5afac"><path d="M 12.105469 73.558594 L 59.265625 73.558594 L 59.265625 109.261719 L 12.105469 109.261719 Z M 12.105469 73.558594 " clip-rule="nonzero"/></clipPath><clipPath id="6e8231b3fe"><path d="M 231 14 L 257 14 L 257 57.484375 L 231 57.484375 Z M 231 14 " clip-rule="nonzero"/></clipPath><clipPath id="fd6459a4bd"><path d="M 265 14 L 292 14 L 292 57.484375 L 265 57.484375 Z M 265 14 " clip-rule="nonzero"/></clipPath><clipPath id="f68acf1c1d"><rect x="0" width="300" y="0" height="58"/></clipPath></defs><g clip-path="url(#f1385e1c86)"><g clip-path="url(#bfe12b3893)"><g clip-path="url(#4a74ae9e15)"><g clip-path="url(#c9917c7d76)"><path fill="#34ab53" d="M 85.886719 65.28125 C 85.832031 88.714844 66.019531 107.648438 66.019531 107.648438 C 66.019531 107.648438 46.285156 88.601562 46.304688 65.144531 C 46.324219 41.683594 66.171875 22.777344 66.171875 22.777344 C 66.171875 22.777344 85.941406 41.847656 85.886719 65.28125 Z M 85.886719 65.28125 " fill-opacity="1" fill-rule="nonzero"/></g></g></g></g><g clip-path="url(#08d4c82a74)"><path fill="#237b3a" d="M 104.378906 102.679688 C 91.375 112.15625 72.84375 108.867188 72.84375 108.867188 C 72.84375 108.867188 75.386719 90.214844 88.386719 80.710938 C 101.386719 71.207031 119.921875 74.523438 119.921875 74.523438 C 119.921875 74.523438 117.378906 93.203125 104.378906 102.679688 Z M 104.378906 102.679688 " fill-opacity="1" fill-rule="nonzero"/></g><g clip-path="url(#d5e0c5afac)"><path fill="#237b3a" d="M 27.671875 102.363281 C 40.703125 111.855469 59.269531 108.5625 59.269531 108.5625 C 59.269531 108.5625 56.722656 89.871094 43.695312 80.347656 C 30.667969 70.824219 12.097656 74.148438 12.097656 74.148438 C 12.097656 74.148438 14.644531 92.867188 27.671875 102.363281 Z M 27.671875 102.363281 " fill-opacity="1" fill-rule="nonzero"/></g><g fill="#868686" fill-opacity="1"><g transform="translate(145.943375, 96.12301)"><g><path d="M 5.828125 -8.5625 C 6.890625 -8.5625 7.722656 -8.253906 8.328125 -7.640625 C 8.941406 -7.023438 9.25 -6.144531 9.25 -5 L 9.25 0 L 8.71875 0 L 8.71875 -4.96875 C 8.71875 -5.96875 8.460938 -6.734375 7.953125 -7.265625 C 7.441406 -7.796875 6.71875 -8.0625 5.78125 -8.0625 C 4.71875 -8.0625 3.878906 -7.742188 3.265625 -7.109375 C 2.660156 -6.484375 2.359375 -5.640625 2.359375 -4.578125 L 2.359375 0 L 1.8125 0 L 1.8125 -8.5 L 2.34375 -8.5 L 2.34375 -6.421875 C 2.613281 -7.085938 3.050781 -7.609375 3.65625 -7.984375 C 4.257812 -8.367188 4.984375 -8.5625 5.828125 -8.5625 Z M 5.828125 -8.5625 "/></g></g></g><g fill="#868686" fill-opacity="1"><g transform="translate(156.909276, 96.12301)"><g><path d="M 4.59375 -8.5625 C 5.613281 -8.5625 6.394531 -8.296875 6.9375 -7.765625 C 7.476562 -7.242188 7.75 -6.488281 7.75 -5.5 L 7.75 0 L 7.21875 0 L 7.21875 -1.703125 C 6.945312 -1.160156 6.539062 -0.734375 6 -0.421875 C 5.457031 -0.109375 4.8125 0.046875 4.0625 0.046875 C 3.113281 0.046875 2.367188 -0.171875 1.828125 -0.609375 C 1.285156 -1.046875 1.015625 -1.625 1.015625 -2.34375 C 1.015625 -3.03125 1.257812 -3.585938 1.75 -4.015625 C 2.238281 -4.453125 3.023438 -4.671875 4.109375 -4.671875 L 7.203125 -4.671875 L 7.203125 -5.5 C 7.203125 -6.34375 6.976562 -6.984375 6.53125 -7.421875 C 6.09375 -7.859375 5.441406 -8.078125 4.578125 -8.078125 C 3.984375 -8.078125 3.421875 -7.972656 2.890625 -7.765625 C 2.367188 -7.554688 1.925781 -7.273438 1.5625 -6.921875 L 1.265625 -7.3125 C 1.679688 -7.707031 2.179688 -8.015625 2.765625 -8.234375 C 3.347656 -8.453125 3.957031 -8.5625 4.59375 -8.5625 Z M 4.09375 -0.40625 C 5.625 -0.40625 6.660156 -1.085938 7.203125 -2.453125 L 7.203125 -4.21875 L 4.109375 -4.21875 C 3.222656 -4.21875 2.578125 -4.050781 2.171875 -3.71875 C 1.765625 -3.382812 1.5625 -2.9375 1.5625 -2.375 C 1.5625 -1.757812 1.785156 -1.273438 2.234375 -0.921875 C 2.691406 -0.578125 3.3125 -0.40625 4.09375 -0.40625 Z M 4.09375 -0.40625 "/></g></g></g><g fill="#868686" fill-opacity="1"><g transform="translate(166.369417, 96.12301)"><g><path d="M 5.828125 -0.546875 C 5.628906 -0.359375 5.378906 -0.210938 5.078125 -0.109375 C 4.773438 -0.00390625 4.457031 0.046875 4.125 0.046875 C 3.4375 0.046875 2.90625 -0.144531 2.53125 -0.53125 C 2.15625 -0.914062 1.96875 -1.445312 1.96875 -2.125 L 1.96875 -8.03125 L 0.359375 -8.03125 L 0.359375 -8.5 L 1.96875 -8.5 L 1.96875 -10.359375 L 2.5 -10.359375 L 2.5 -8.5 L 5.3125 -8.5 L 5.3125 -8.03125 L 2.5 -8.03125 L 2.5 -2.203125 C 2.5 -1.628906 2.640625 -1.1875 2.921875 -0.875 C 3.210938 -0.570312 3.628906 -0.421875 4.171875 -0.421875 C 4.722656 -0.421875 5.179688 -0.59375 5.546875 -0.9375 Z M 5.828125 -0.546875 "/></g></g></g><g fill="#868686" fill-opacity="1"><g transform="translate(172.785286, 96.12301)"><g><path d="M 9.09375 -8.5 L 9.09375 0 L 8.5625 0 L 8.5625 -2.0625 C 8.300781 -1.394531 7.878906 -0.875 7.296875 -0.5 C 6.722656 -0.132812 6.035156 0.046875 5.234375 0.046875 C 4.140625 0.046875 3.28125 -0.253906 2.65625 -0.859375 C 2.03125 -1.472656 1.71875 -2.351562 1.71875 -3.5 L 1.71875 -8.5 L 2.265625 -8.5 L 2.265625 -3.53125 C 2.265625 -2.53125 2.519531 -1.765625 3.03125 -1.234375 C 3.550781 -0.703125 4.289062 -0.4375 5.25 -0.4375 C 6.269531 -0.4375 7.070312 -0.75 7.65625 -1.375 C 8.25 -2.007812 8.546875 -2.851562 8.546875 -3.90625 L 8.546875 -8.5 Z M 9.09375 -8.5 "/></g></g></g><g fill="#868686" fill-opacity="1"><g transform="translate(183.68572, 96.12301)"><g><path d="M 2.34375 -6.453125 C 2.59375 -7.128906 3 -7.648438 3.5625 -8.015625 C 4.125 -8.378906 4.820312 -8.5625 5.65625 -8.5625 L 5.65625 -8.03125 L 5.5 -8.03125 C 4.519531 -8.03125 3.75 -7.71875 3.1875 -7.09375 C 2.632812 -6.46875 2.359375 -5.609375 2.359375 -4.515625 L 2.359375 0 L 1.8125 0 L 1.8125 -8.5 L 2.34375 -8.5 Z M 2.34375 -6.453125 "/></g></g></g><g fill="#868686" fill-opacity="1"><g transform="translate(189.806924, 96.12301)"><g><path d="M 8.828125 -4.171875 L 1.375 -4.171875 C 1.382812 -3.453125 1.550781 -2.804688 1.875 -2.234375 C 2.207031 -1.671875 2.660156 -1.226562 3.234375 -0.90625 C 3.804688 -0.59375 4.445312 -0.4375 5.15625 -0.4375 C 5.738281 -0.4375 6.273438 -0.539062 6.765625 -0.75 C 7.253906 -0.96875 7.65625 -1.285156 7.96875 -1.703125 L 8.3125 -1.34375 C 7.9375 -0.894531 7.472656 -0.550781 6.921875 -0.3125 C 6.378906 -0.0703125 5.789062 0.046875 5.15625 0.046875 C 4.320312 0.046875 3.582031 -0.132812 2.9375 -0.5 C 2.289062 -0.863281 1.78125 -1.375 1.40625 -2.03125 C 1.03125 -2.6875 0.84375 -3.425781 0.84375 -4.25 C 0.84375 -5.082031 1.015625 -5.828125 1.359375 -6.484375 C 1.710938 -7.140625 2.191406 -7.648438 2.796875 -8.015625 C 3.410156 -8.378906 4.09375 -8.5625 4.84375 -8.5625 C 5.582031 -8.5625 6.253906 -8.378906 6.859375 -8.015625 C 7.472656 -7.660156 7.953125 -7.160156 8.296875 -6.515625 C 8.648438 -5.867188 8.828125 -5.140625 8.828125 -4.328125 Z M 4.84375 -8.078125 C 4.207031 -8.078125 3.632812 -7.925781 3.125 -7.625 C 2.613281 -7.332031 2.203125 -6.921875 1.890625 -6.390625 C 1.585938 -5.859375 1.421875 -5.269531 1.390625 -4.625 L 8.3125 -4.625 C 8.269531 -5.269531 8.09375 -5.859375 7.78125 -6.390625 C 7.46875 -6.921875 7.054688 -7.332031 6.546875 -7.625 C 6.046875 -7.925781 5.476562 -8.078125 4.84375 -8.078125 Z M 4.84375 -8.078125 "/></g></g></g><g fill="#868686" fill-opacity="1"><g transform="translate(199.397965, 96.12301)"><g><path d="M 7.375 -0.46875 L 7.375 0 L 0.734375 0 L 0.734375 -0.375 L 6.5625 -8.03125 L 0.8125 -8.03125 L 0.8125 -8.5 L 7.28125 -8.5 L 7.28125 -8.125 L 1.4375 -0.46875 Z M 7.375 -0.46875 "/></g></g></g><g fill="#868686" fill-opacity="1"><g transform="translate(207.516008, 96.12301)"><g><path d="M 4.59375 -8.5625 C 5.613281 -8.5625 6.394531 -8.296875 6.9375 -7.765625 C 7.476562 -7.242188 7.75 -6.488281 7.75 -5.5 L 7.75 0 L 7.21875 0 L 7.21875 -1.703125 C 6.945312 -1.160156 6.539062 -0.734375 6 -0.421875 C 5.457031 -0.109375 4.8125 0.046875 4.0625 0.046875 C 3.113281 0.046875 2.367188 -0.171875 1.828125 -0.609375 C 1.285156 -1.046875 1.015625 -1.625 1.015625 -2.34375 C 1.015625 -3.03125 1.257812 -3.585938 1.75 -4.015625 C 2.238281 -4.453125 3.023438 -4.671875 4.109375 -4.671875 L 7.203125 -4.671875 L 7.203125 -5.5 C 7.203125 -6.34375 6.976562 -6.984375 6.53125 -7.421875 C 6.09375 -7.859375 5.441406 -8.078125 4.578125 -8.078125 C 3.984375 -8.078125 3.421875 -7.972656 2.890625 -7.765625 C 2.367188 -7.554688 1.925781 -7.273438 1.5625 -6.921875 L 1.265625 -7.3125 C 1.679688 -7.707031 2.179688 -8.015625 2.765625 -8.234375 C 3.347656 -8.453125 3.957031 -8.5625 4.59375 -8.5625 Z M 4.09375 -0.40625 C 5.625 -0.40625 6.660156 -1.085938 7.203125 -2.453125 L 7.203125 -4.21875 L 4.109375 -4.21875 C 3.222656 -4.21875 2.578125 -4.050781 2.171875 -3.71875 C 1.765625 -3.382812 1.5625 -2.9375 1.5625 -2.375 C 1.5625 -1.757812 1.785156 -1.273438 2.234375 -0.921875 C 2.691406 -0.578125 3.3125 -0.40625 4.09375 -0.40625 Z M 4.09375 -0.40625 "/></g></g></g><g fill="#868686" fill-opacity="1"><g transform="translate(216.976149, 96.12301)"><g/></g></g><g fill="#868686" fill-opacity="1"><g transform="translate(221.117008, 96.12301)"><g><path d="M 10.03125 0.15625 L 8.3125 -1.6875 C 7.414062 -0.519531 6.148438 0.0625 4.515625 0.0625 C 3.804688 0.0625 3.175781 -0.0507812 2.625 -0.28125 C 2.082031 -0.519531 1.65625 -0.851562 1.34375 -1.28125 C 1.039062 -1.71875 0.890625 -2.210938 0.890625 -2.765625 C 0.890625 -3.421875 1.113281 -4.023438 1.5625 -4.578125 C 2.019531 -5.128906 2.8125 -5.738281 3.9375 -6.40625 L 3.84375 -6.5 C 3.28125 -7.101562 2.894531 -7.597656 2.6875 -7.984375 C 2.488281 -8.367188 2.390625 -8.789062 2.390625 -9.25 C 2.390625 -9.9375 2.617188 -10.488281 3.078125 -10.90625 C 3.546875 -11.320312 4.175781 -11.53125 4.96875 -11.53125 C 5.707031 -11.53125 6.289062 -11.335938 6.71875 -10.953125 C 7.15625 -10.578125 7.375 -10.066406 7.375 -9.421875 C 7.375 -8.859375 7.175781 -8.351562 6.78125 -7.90625 C 6.394531 -7.46875 5.695312 -6.941406 4.6875 -6.328125 L 8.28125 -2.453125 C 8.675781 -3.140625 8.960938 -3.941406 9.140625 -4.859375 L 9.59375 -4.75 C 9.382812 -3.695312 9.054688 -2.816406 8.609375 -2.109375 L 10.390625 -0.203125 Z M 2.921875 -9.25 C 2.921875 -8.863281 3.015625 -8.492188 3.203125 -8.140625 C 3.390625 -7.796875 3.757812 -7.328125 4.3125 -6.734375 L 4.375 -6.671875 C 5.03125 -7.046875 5.535156 -7.378906 5.890625 -7.671875 C 6.242188 -7.960938 6.492188 -8.242188 6.640625 -8.515625 C 6.796875 -8.785156 6.875 -9.085938 6.875 -9.421875 C 6.875 -9.921875 6.703125 -10.316406 6.359375 -10.609375 C 6.023438 -10.910156 5.5625 -11.0625 4.96875 -11.0625 C 4.332031 -11.0625 3.832031 -10.894531 3.46875 -10.5625 C 3.101562 -10.238281 2.921875 -9.800781 2.921875 -9.25 Z M 4.53125 -0.390625 C 6.019531 -0.390625 7.171875 -0.9375 7.984375 -2.03125 L 4.25 -6.0625 C 3.519531 -5.625 2.953125 -5.234375 2.546875 -4.890625 C 2.140625 -4.546875 1.847656 -4.207031 1.671875 -3.875 C 1.503906 -3.550781 1.421875 -3.191406 1.421875 -2.796875 C 1.421875 -2.078125 1.707031 -1.492188 2.28125 -1.046875 C 2.851562 -0.609375 3.601562 -0.390625 4.53125 -0.390625 Z M 4.53125 -0.390625 "/></g></g></g><g fill="#868686" fill-opacity="1"><g transform="translate(231.640996, 96.12301)"><g/></g></g><g fill="#868686" fill-opacity="1"><g transform="translate(235.781855, 96.12301)"><g><path d="M 5.078125 0.046875 C 4.265625 0.046875 3.539062 -0.132812 2.90625 -0.5 C 2.269531 -0.863281 1.765625 -1.375 1.390625 -2.03125 C 1.023438 -2.6875 0.84375 -3.425781 0.84375 -4.25 C 0.84375 -5.082031 1.023438 -5.828125 1.390625 -6.484375 C 1.765625 -7.140625 2.269531 -7.648438 2.90625 -8.015625 C 3.539062 -8.378906 4.265625 -8.5625 5.078125 -8.5625 C 5.722656 -8.5625 6.320312 -8.4375 6.875 -8.1875 C 7.425781 -7.945312 7.875 -7.585938 8.21875 -7.109375 L 7.8125 -6.765625 C 7.507812 -7.191406 7.117188 -7.515625 6.640625 -7.734375 C 6.160156 -7.953125 5.640625 -8.0625 5.078125 -8.0625 C 4.378906 -8.0625 3.75 -7.898438 3.1875 -7.578125 C 2.625 -7.253906 2.179688 -6.804688 1.859375 -6.234375 C 1.546875 -5.660156 1.390625 -5 1.390625 -4.25 C 1.390625 -3.507812 1.546875 -2.847656 1.859375 -2.265625 C 2.179688 -1.691406 2.625 -1.242188 3.1875 -0.921875 C 3.75 -0.597656 4.378906 -0.4375 5.078125 -0.4375 C 5.640625 -0.4375 6.160156 -0.546875 6.640625 -0.765625 C 7.117188 -0.984375 7.507812 -1.304688 7.8125 -1.734375 L 8.21875 -1.40625 C 7.875 -0.925781 7.425781 -0.5625 6.875 -0.3125 C 6.320312 -0.0703125 5.722656 0.046875 5.078125 0.046875 Z M 5.078125 0.046875 "/></g></g></g><g fill="#868686" fill-opacity="1"><g transform="translate(244.767343, 96.12301)"><g><path d="M 1.8125 -8.5 L 2.359375 -8.5 L 2.359375 0 L 1.8125 0 Z M 2.078125 -10.71875 C 1.929688 -10.71875 1.800781 -10.769531 1.6875 -10.875 C 1.582031 -10.976562 1.53125 -11.101562 1.53125 -11.25 C 1.53125 -11.40625 1.582031 -11.535156 1.6875 -11.640625 C 1.789062 -11.742188 1.921875 -11.796875 2.078125 -11.796875 C 2.210938 -11.796875 2.332031 -11.742188 2.4375 -11.640625 C 2.550781 -11.535156 2.609375 -11.410156 2.609375 -11.265625 C 2.609375 -11.117188 2.550781 -10.988281 2.4375 -10.875 C 2.332031 -10.769531 2.210938 -10.71875 2.078125 -10.71875 Z M 2.078125 -10.71875 "/></g></g></g><g fill="#868686" fill-opacity="1"><g transform="translate(248.94093, 96.12301)"><g><path d="M 8.828125 -4.171875 L 1.375 -4.171875 C 1.382812 -3.453125 1.550781 -2.804688 1.875 -2.234375 C 2.207031 -1.671875 2.660156 -1.226562 3.234375 -0.90625 C 3.804688 -0.59375 4.445312 -0.4375 5.15625 -0.4375 C 5.738281 -0.4375 6.273438 -0.539062 6.765625 -0.75 C 7.253906 -0.96875 7.65625 -1.285156 7.96875 -1.703125 L 8.3125 -1.34375 C 7.9375 -0.894531 7.472656 -0.550781 6.921875 -0.3125 C 6.378906 -0.0703125 5.789062 0.046875 5.15625 0.046875 C 4.320312 0.046875 3.582031 -0.132812 2.9375 -0.5 C 2.289062 -0.863281 1.78125 -1.375 1.40625 -2.03125 C 1.03125 -2.6875 0.84375 -3.425781 0.84375 -4.25 C 0.84375 -5.082031 1.015625 -5.828125 1.359375 -6.484375 C 1.710938 -7.140625 2.191406 -7.648438 2.796875 -8.015625 C 3.410156 -8.378906 4.09375 -8.5625 4.84375 -8.5625 C 5.582031 -8.5625 6.253906 -8.378906 6.859375 -8.015625 C 7.472656 -7.660156 7.953125 -7.160156 8.296875 -6.515625 C 8.648438 -5.867188 8.828125 -5.140625 8.828125 -4.328125 Z M 4.84375 -8.078125 C 4.207031 -8.078125 3.632812 -7.925781 3.125 -7.625 C 2.613281 -7.332031 2.203125 -6.921875 1.890625 -6.390625 C 1.585938 -5.859375 1.421875 -5.269531 1.390625 -4.625 L 8.3125 -4.625 C 8.269531 -5.269531 8.09375 -5.859375 7.78125 -6.390625 C 7.46875 -6.921875 7.054688 -7.332031 6.546875 -7.625 C 6.046875 -7.925781 5.476562 -8.078125 4.84375 -8.078125 Z M 6.625 -9.9375 L 4.859375 -11.40625 L 3.078125 -9.9375 L 2.484375 -9.9375 L 4.515625 -11.796875 L 5.203125 -11.796875 L 7.234375 -9.9375 Z M 6.625 -9.9375 "/></g></g></g><g fill="#868686" fill-opacity="1"><g transform="translate(258.613831, 96.12301)"><g><path d="M 5.828125 -8.5625 C 6.890625 -8.5625 7.722656 -8.253906 8.328125 -7.640625 C 8.941406 -7.023438 9.25 -6.144531 9.25 -5 L 9.25 0 L 8.71875 0 L 8.71875 -4.96875 C 8.71875 -5.96875 8.460938 -6.734375 7.953125 -7.265625 C 7.441406 -7.796875 6.71875 -8.0625 5.78125 -8.0625 C 4.71875 -8.0625 3.878906 -7.742188 3.265625 -7.109375 C 2.660156 -6.484375 2.359375 -5.640625 2.359375 -4.578125 L 2.359375 0 L 1.8125 0 L 1.8125 -8.5 L 2.34375 -8.5 L 2.34375 -6.421875 C 2.613281 -7.085938 3.050781 -7.609375 3.65625 -7.984375 C 4.257812 -8.367188 4.984375 -8.5625 5.828125 -8.5625 Z M 5.828125 -8.5625 "/></g></g></g><g fill="#868686" fill-opacity="1"><g transform="translate(269.596102, 96.12301)"><g><path d="M 5.078125 0.046875 C 4.265625 0.046875 3.539062 -0.132812 2.90625 -0.5 C 2.269531 -0.863281 1.765625 -1.375 1.390625 -2.03125 C 1.023438 -2.6875 0.84375 -3.425781 0.84375 -4.25 C 0.84375 -5.082031 1.023438 -5.828125 1.390625 -6.484375 C 1.765625 -7.140625 2.269531 -7.648438 2.90625 -8.015625 C 3.539062 -8.378906 4.265625 -8.5625 5.078125 -8.5625 C 5.722656 -8.5625 6.320312 -8.4375 6.875 -8.1875 C 7.425781 -7.945312 7.875 -7.585938 8.21875 -7.109375 L 7.8125 -6.765625 C 7.507812 -7.191406 7.117188 -7.515625 6.640625 -7.734375 C 6.160156 -7.953125 5.640625 -8.0625 5.078125 -8.0625 C 4.378906 -8.0625 3.75 -7.898438 3.1875 -7.578125 C 2.625 -7.253906 2.179688 -6.804688 1.859375 -6.234375 C 1.546875 -5.660156 1.390625 -5 1.390625 -4.25 C 1.390625 -3.507812 1.546875 -2.847656 1.859375 -2.265625 C 2.179688 -1.691406 2.625 -1.242188 3.1875 -0.921875 C 3.75 -0.597656 4.378906 -0.4375 5.078125 -0.4375 C 5.640625 -0.4375 6.160156 -0.546875 6.640625 -0.765625 C 7.117188 -0.984375 7.507812 -1.304688 7.8125 -1.734375 L 8.21875 -1.40625 C 7.875 -0.925781 7.425781 -0.5625 6.875 -0.3125 C 6.320312 -0.0703125 5.722656 0.046875 5.078125 0.046875 Z M 5.078125 0.046875 "/></g></g></g><g fill="#868686" fill-opacity="1"><g transform="translate(278.581591, 96.12301)"><g><path d="M 1.8125 -8.5 L 2.359375 -8.5 L 2.359375 0 L 1.8125 0 Z M 2.078125 -10.71875 C 1.929688 -10.71875 1.800781 -10.769531 1.6875 -10.875 C 1.582031 -10.976562 1.53125 -11.101562 1.53125 -11.25 C 1.53125 -11.40625 1.582031 -11.535156 1.6875 -11.640625 C 1.789062 -11.742188 1.921875 -11.796875 2.078125 -11.796875 C 2.210938 -11.796875 2.332031 -11.742188 2.4375 -11.640625 C 2.550781 -11.535156 2.609375 -11.410156 2.609375 -11.265625 C 2.609375 -11.117188 2.550781 -10.988281 2.4375 -10.875 C 2.332031 -10.769531 2.210938 -10.71875 2.078125 -10.71875 Z M 2.078125 -10.71875 "/></g></g></g><g fill="#868686" fill-opacity="1"><g transform="translate(282.755177, 96.12301)"><g><path d="M 4.59375 -8.5625 C 5.613281 -8.5625 6.394531 -8.296875 6.9375 -7.765625 C 7.476562 -7.242188 7.75 -6.488281 7.75 -5.5 L 7.75 0 L 7.21875 0 L 7.21875 -1.703125 C 6.945312 -1.160156 6.539062 -0.734375 6 -0.421875 C 5.457031 -0.109375 4.8125 0.046875 4.0625 0.046875 C 3.113281 0.046875 2.367188 -0.171875 1.828125 -0.609375 C 1.285156 -1.046875 1.015625 -1.625 1.015625 -2.34375 C 1.015625 -3.03125 1.257812 -3.585938 1.75 -4.015625 C 2.238281 -4.453125 3.023438 -4.671875 4.109375 -4.671875 L 7.203125 -4.671875 L 7.203125 -5.5 C 7.203125 -6.34375 6.976562 -6.984375 6.53125 -7.421875 C 6.09375 -7.859375 5.441406 -8.078125 4.578125 -8.078125 C 3.984375 -8.078125 3.421875 -7.972656 2.890625 -7.765625 C 2.367188 -7.554688 1.925781 -7.273438 1.5625 -6.921875 L 1.265625 -7.3125 C 1.679688 -7.707031 2.179688 -8.015625 2.765625 -8.234375 C 3.347656 -8.453125 3.957031 -8.5625 4.59375 -8.5625 Z M 4.09375 -0.40625 C 5.625 -0.40625 6.660156 -1.085938 7.203125 -2.453125 L 7.203125 -4.21875 L 4.109375 -4.21875 C 3.222656 -4.21875 2.578125 -4.050781 2.171875 -3.71875 C 1.765625 -3.382812 1.5625 -2.9375 1.5625 -2.375 C 1.5625 -1.757812 1.785156 -1.273438 2.234375 -0.921875 C 2.691406 -0.578125 3.3125 -0.40625 4.09375 -0.40625 Z M 4.09375 -0.40625 "/></g></g></g><g transform="matrix(1, 0, 0, 1, 143, 39)"><g clip-path="url(#f68acf1c1d)"><g fill="#34ab53" fill-opacity="1"><g transform="translate(0.329392, 41.802892)"><g><path d="M 2.796875 0 L 2.796875 -40.015625 L 6 -40.015625 L 6 -24.734375 C 6 -24.066406 6.117188 -23.734375 6.359375 -23.734375 C 6.523438 -23.734375 6.820312 -23.921875 7.25 -24.296875 C 8.6875 -25.679688 10.21875 -26.722656 11.84375 -27.421875 C 13.46875 -28.128906 15.320312 -28.484375 17.40625 -28.484375 C 19.4375 -28.484375 21.21875 -28.085938 22.75 -27.296875 C 24.28125 -26.515625 25.476562 -25.429688 26.34375 -24.046875 C 27.21875 -22.660156 27.65625 -21.0625 27.65625 -19.25 L 27.65625 0 L 24.453125 0 L 24.453125 -19.171875 C 24.453125 -21.066406 24.085938 -22.640625 23.359375 -23.890625 C 22.640625 -25.140625 21.691406 -26.082031 20.515625 -26.71875 C 19.347656 -27.363281 18.097656 -27.6875 16.765625 -27.6875 C 15.429688 -27.6875 14.125 -27.429688 12.84375 -26.921875 C 11.5625 -26.421875 10.40625 -25.734375 9.375 -24.859375 C 8.351562 -23.992188 7.535156 -23.015625 6.921875 -21.921875 C 6.304688 -20.828125 6 -19.695312 6 -18.53125 L 6 0 Z M 2.796875 0 "/></g></g></g><g fill="#34ab53" fill-opacity="1"><g transform="translate(37.506395, 41.802892)"><g><path d="M 15.765625 0.796875 C 13.097656 0.796875 10.726562 0.195312 8.65625 -1 C 6.59375 -2.195312 4.96875 -3.894531 3.78125 -6.09375 C 2.59375 -8.300781 2 -10.910156 2 -13.921875 C 2 -15.921875 2.382812 -17.796875 3.15625 -19.546875 C 3.9375 -21.296875 5 -22.84375 6.34375 -24.1875 C 7.6875 -25.53125 9.242188 -26.582031 11.015625 -27.34375 C 12.796875 -28.101562 14.695312 -28.484375 16.71875 -28.484375 C 18.113281 -28.484375 19.476562 -28.273438 20.8125 -27.859375 C 22.144531 -27.453125 23.25 -26.816406 24.125 -25.953125 C 25.007812 -25.085938 25.453125 -23.972656 25.453125 -22.609375 C 25.453125 -21.140625 25 -19.785156 24.09375 -18.546875 C 23.1875 -17.304688 21.953125 -16.222656 20.390625 -15.296875 C 18.828125 -14.378906 17.066406 -13.664062 15.109375 -13.15625 C 13.148438 -12.65625 11.101562 -12.40625 8.96875 -12.40625 C 8.695312 -12.40625 8.445312 -12.40625 8.21875 -12.40625 C 8 -12.40625 7.78125 -12.40625 7.5625 -12.40625 C 6.945312 -12.425781 6.476562 -12.265625 6.15625 -11.921875 C 5.84375 -11.578125 5.738281 -11.125 5.84375 -10.5625 C 6.476562 -7.382812 7.726562 -4.894531 9.59375 -3.09375 C 11.46875 -1.300781 13.832031 -0.40625 16.6875 -0.40625 C 18.90625 -0.40625 20.734375 -0.957031 22.171875 -2.0625 C 23.609375 -3.164062 24.660156 -4.46875 25.328125 -5.96875 L 26.171875 -5.484375 C 25.265625 -3.554688 23.976562 -2.023438 22.3125 -0.890625 C 20.644531 0.234375 18.460938 0.796875 15.765625 0.796875 Z M 5.4375 -15.125 C 5.414062 -14.675781 5.546875 -14.253906 5.828125 -13.859375 C 6.109375 -13.472656 6.457031 -13.253906 6.875 -13.203125 C 7.175781 -13.179688 7.492188 -13.148438 7.828125 -13.109375 C 8.160156 -13.066406 8.523438 -13.046875 8.921875 -13.046875 C 9.960938 -13.046875 11.085938 -13.1875 12.296875 -13.46875 C 13.515625 -13.75 14.703125 -14.15625 15.859375 -14.6875 C 17.023438 -15.21875 18.085938 -15.863281 19.046875 -16.625 C 20.003906 -17.382812 20.769531 -18.242188 21.34375 -19.203125 C 21.914062 -20.160156 22.203125 -21.203125 22.203125 -22.328125 C 22.203125 -23.472656 21.9375 -24.445312 21.40625 -25.25 C 20.875 -26.050781 20.179688 -26.65625 19.328125 -27.0625 C 18.472656 -27.476562 17.550781 -27.6875 16.5625 -27.6875 C 14.832031 -27.6875 13.285156 -27.332031 11.921875 -26.625 C 10.566406 -25.914062 9.414062 -24.96875 8.46875 -23.78125 C 7.519531 -22.601562 6.789062 -21.265625 6.28125 -19.765625 C 5.769531 -18.273438 5.488281 -16.726562 5.4375 -15.125 Z M 5.4375 -15.125 "/></g></g></g><g fill="#34ab53" fill-opacity="1"><g transform="translate(71.802191, 41.802892)"><g><path d="M 2.796875 -27.6875 L 6 -27.6875 L 6 -22.6875 C 6 -22.050781 6.09375 -21.734375 6.28125 -21.734375 C 6.4375 -21.734375 6.675781 -21.957031 7 -22.40625 C 7.664062 -23.3125 8.503906 -24.234375 9.515625 -25.171875 C 10.535156 -26.109375 11.734375 -26.894531 13.109375 -27.53125 C 14.484375 -28.164062 15.992188 -28.484375 17.640625 -28.484375 C 19.085938 -28.484375 20.316406 -28.25 21.328125 -27.78125 C 22.335938 -27.320312 22.84375 -26.734375 22.84375 -26.015625 C 22.84375 -25.773438 22.75 -25.46875 22.5625 -25.09375 C 22.375 -24.71875 21.976562 -24.53125 21.375 -24.53125 C 20.832031 -24.53125 20.367188 -24.625 19.984375 -24.8125 C 19.597656 -25 19.210938 -25.210938 18.828125 -25.453125 C 18.441406 -25.691406 18 -25.90625 17.5 -26.09375 C 17.007812 -26.28125 16.378906 -26.375 15.609375 -26.375 C 14.410156 -26.375 13.234375 -26.117188 12.078125 -25.609375 C 10.929688 -25.097656 9.90625 -24.398438 9 -23.515625 C 8.09375 -22.640625 7.363281 -21.632812 6.8125 -20.5 C 6.269531 -19.375 6 -18.179688 6 -16.921875 L 6 0 L 2.796875 0 Z M 2.796875 -27.6875 "/></g></g></g><g fill="#34ab53" fill-opacity="1"><g transform="translate(101.376021, 41.802892)"><g><path d="M 2.796875 -40.015625 L 5.765625 -40.015625 L 5.765625 -26.609375 C 5.765625 -25.460938 5.976562 -24.890625 6.40625 -24.890625 C 6.71875 -24.890625 7.25 -25.195312 8 -25.8125 C 8.882812 -26.5625 9.957031 -27.191406 11.21875 -27.703125 C 12.488281 -28.222656 14.125 -28.484375 16.125 -28.484375 C 18.65625 -28.484375 20.785156 -27.875 22.515625 -26.65625 C 24.253906 -25.445312 25.578125 -23.800781 26.484375 -21.71875 C 27.390625 -19.644531 27.84375 -17.300781 27.84375 -14.6875 C 27.84375 -12.976562 27.597656 -11.253906 27.109375 -9.515625 C 26.617188 -7.785156 25.863281 -6.195312 24.84375 -4.75 C 23.832031 -3.3125 22.550781 -2.160156 21 -1.296875 C 19.457031 -0.429688 17.644531 0 15.5625 0 L 2.796875 0 Z M 6.078125 -20.28125 L 6.078125 -2.796875 C 6.078125 -2.210938 6.265625 -1.734375 6.640625 -1.359375 C 7.015625 -0.984375 7.492188 -0.796875 8.078125 -0.796875 L 12.6875 -0.796875 C 14.789062 -0.796875 16.597656 -1.179688 18.109375 -1.953125 C 19.617188 -2.734375 20.851562 -3.78125 21.8125 -5.09375 C 22.769531 -6.414062 23.472656 -7.894531 23.921875 -9.53125 C 24.378906 -11.175781 24.609375 -12.878906 24.609375 -14.640625 C 24.609375 -16.328125 24.375 -17.9375 23.90625 -19.46875 C 23.4375 -21 22.78125 -22.367188 21.9375 -23.578125 C 21.101562 -24.796875 20.101562 -25.75 18.9375 -26.4375 C 17.78125 -27.132812 16.507812 -27.484375 15.125 -27.484375 C 13.820312 -27.484375 12.578125 -27.25 11.390625 -26.78125 C 10.203125 -26.320312 9.171875 -25.703125 8.296875 -24.921875 C 7.429688 -24.148438 6.800781 -23.300781 6.40625 -22.375 C 6.1875 -21.863281 6.078125 -21.164062 6.078125 -20.28125 Z M 6.078125 -20.28125 "/></g></g></g><g fill="#34ab53" fill-opacity="1"><g transform="translate(137.952768, 41.802892)"><g><path d="M 15.5625 0.796875 C 12.875 0.796875 10.507812 0.191406 8.46875 -1.015625 C 6.425781 -2.234375 4.835938 -3.941406 3.703125 -6.140625 C 2.566406 -8.335938 2 -10.90625 2 -13.84375 C 2 -16.78125 2.566406 -19.347656 3.703125 -21.546875 C 4.835938 -23.742188 6.425781 -25.445312 8.46875 -26.65625 C 10.507812 -27.875 12.875 -28.484375 15.5625 -28.484375 C 18.28125 -28.484375 20.65625 -27.875 22.6875 -26.65625 C 24.71875 -25.445312 26.296875 -23.742188 27.421875 -21.546875 C 28.554688 -19.347656 29.125 -16.78125 29.125 -13.84375 C 29.125 -10.90625 28.554688 -8.335938 27.421875 -6.140625 C 26.296875 -3.941406 24.71875 -2.234375 22.6875 -1.015625 C 20.65625 0.191406 18.28125 0.796875 15.5625 0.796875 Z M 5.28125 -13.84375 C 5.28125 -11.070312 5.707031 -8.644531 6.5625 -6.5625 C 7.414062 -4.476562 8.613281 -2.863281 10.15625 -1.71875 C 11.707031 -0.570312 13.507812 0 15.5625 0 C 17.613281 0 19.414062 -0.570312 20.96875 -1.71875 C 22.519531 -2.863281 23.71875 -4.476562 24.5625 -6.5625 C 25.414062 -8.644531 25.84375 -11.070312 25.84375 -13.84375 C 25.84375 -16.613281 25.414062 -19.039062 24.5625 -21.125 C 23.71875 -23.207031 22.519531 -24.820312 20.96875 -25.96875 C 19.414062 -27.113281 17.613281 -27.6875 15.5625 -27.6875 C 13.507812 -27.6875 11.707031 -27.113281 10.15625 -25.96875 C 8.613281 -24.820312 7.414062 -23.207031 6.5625 -21.125 C 5.707031 -19.039062 5.28125 -16.613281 5.28125 -13.84375 Z M 5.28125 -13.84375 "/></g></g></g><g fill="#34ab53" fill-opacity="1"><g transform="translate(175.810056, 41.802892)"><g><path d="M 6 0 L 2.796875 0 L 2.796875 -40.015625 L 6 -40.015625 Z M 6 0 "/></g></g></g><g fill="#34ab53" fill-opacity="1"><g transform="translate(191.338028, 41.802892)"><g><path d="M 15.5625 0.796875 C 12.875 0.796875 10.507812 0.191406 8.46875 -1.015625 C 6.425781 -2.234375 4.835938 -3.941406 3.703125 -6.140625 C 2.566406 -8.335938 2 -10.90625 2 -13.84375 C 2 -16.78125 2.566406 -19.347656 3.703125 -21.546875 C 4.835938 -23.742188 6.425781 -25.445312 8.46875 -26.65625 C 10.507812 -27.875 12.875 -28.484375 15.5625 -28.484375 C 18.28125 -28.484375 20.65625 -27.875 22.6875 -26.65625 C 24.71875 -25.445312 26.296875 -23.742188 27.421875 -21.546875 C 28.554688 -19.347656 29.125 -16.78125 29.125 -13.84375 C 29.125 -10.90625 28.554688 -8.335938 27.421875 -6.140625 C 26.296875 -3.941406 24.71875 -2.234375 22.6875 -1.015625 C 20.65625 0.191406 18.28125 0.796875 15.5625 0.796875 Z M 5.28125 -13.84375 C 5.28125 -11.070312 5.707031 -8.644531 6.5625 -6.5625 C 7.414062 -4.476562 8.613281 -2.863281 10.15625 -1.71875 C 11.707031 -0.570312 13.507812 0 15.5625 0 C 17.613281 0 19.414062 -0.570312 20.96875 -1.71875 C 22.519531 -2.863281 23.71875 -4.476562 24.5625 -6.5625 C 25.414062 -8.644531 25.84375 -11.070312 25.84375 -13.84375 C 25.84375 -16.613281 25.414062 -19.039062 24.5625 -21.125 C 23.71875 -23.207031 22.519531 -24.820312 20.96875 -25.96875 C 19.414062 -27.113281 17.613281 -27.6875 15.5625 -27.6875 C 13.507812 -27.6875 11.707031 -27.113281 10.15625 -25.96875 C 8.613281 -24.820312 7.414062 -23.207031 6.5625 -21.125 C 5.707031 -19.039062 5.28125 -16.613281 5.28125 -13.84375 Z M 5.28125 -13.84375 "/></g></g></g><g clip-path="url(#6e8231b3fe)"><g fill="#34ab53" fill-opacity="1"><g transform="translate(229.195303, 41.802892)"><g><path d="M 13.078125 0.796875 C 11.484375 0.796875 10.019531 0.4375 8.6875 -0.28125 C 7.351562 -1 6.1875 -1.976562 5.1875 -3.21875 C 4.1875 -4.457031 3.410156 -5.859375 2.859375 -7.421875 C 2.316406 -8.984375 2.046875 -10.601562 2.046875 -12.28125 C 2.046875 -14.632812 2.472656 -16.753906 3.328125 -18.640625 C 4.179688 -20.535156 5.335938 -22.15625 6.796875 -23.5 C 8.265625 -24.851562 9.953125 -25.890625 11.859375 -26.609375 C 13.765625 -27.328125 15.757812 -27.6875 17.84375 -27.6875 L 27.09375 -27.6875 L 27.09375 -0.40625 C 27.09375 0.988281 26.960938 2.429688 26.703125 3.921875 C 26.453125 5.410156 26.03125 6.847656 25.4375 8.234375 C 24.851562 9.628906 24.0625 10.878906 23.0625 11.984375 C 22.0625 13.085938 20.832031 13.96875 19.375 14.625 C 17.925781 15.28125 16.191406 15.609375 14.171875 15.609375 C 12.296875 15.609375 10.601562 15.304688 9.09375 14.703125 C 7.59375 14.109375 6.28125 13.273438 5.15625 12.203125 L 5.6875 11.609375 C 6 11.847656 6.503906 12.226562 7.203125 12.75 C 7.898438 13.269531 8.828125 13.742188 9.984375 14.171875 C 11.140625 14.597656 12.546875 14.8125 14.203125 14.8125 C 15.617188 14.8125 16.925781 14.441406 18.125 13.703125 C 19.320312 12.972656 20.367188 11.945312 21.265625 10.625 C 22.160156 9.300781 22.859375 7.753906 23.359375 5.984375 C 23.867188 4.210938 24.125 2.296875 24.125 0.234375 L 24.125 -1.078125 C 24.125 -2.222656 23.910156 -2.796875 23.484375 -2.796875 C 23.171875 -2.796875 22.640625 -2.488281 21.890625 -1.875 C 20.796875 -0.96875 19.492188 -0.296875 17.984375 0.140625 C 16.472656 0.578125 14.835938 0.796875 13.078125 0.796875 Z M 17.96875 -26.890625 C 15.164062 -26.890625 12.820312 -26.289062 10.9375 -25.09375 C 9.0625 -23.894531 7.648438 -22.195312 6.703125 -20 C 5.753906 -17.8125 5.28125 -15.253906 5.28125 -12.328125 C 5.28125 -10.085938 5.664062 -8.050781 6.4375 -6.21875 C 7.21875 -4.394531 8.300781 -2.9375 9.6875 -1.84375 C 11.070312 -0.75 12.695312 -0.203125 14.5625 -0.203125 C 16 -0.203125 17.316406 -0.429688 18.515625 -0.890625 C 19.722656 -1.359375 20.757812 -1.976562 21.625 -2.75 C 22.488281 -3.53125 23.109375 -4.390625 23.484375 -5.328125 C 23.703125 -5.828125 23.8125 -6.519531 23.8125 -7.40625 L 23.8125 -24.890625 C 23.8125 -25.503906 23.628906 -25.988281 23.265625 -26.34375 C 22.910156 -26.707031 22.425781 -26.890625 21.8125 -26.890625 Z M 17.96875 -26.890625 "/></g></g></g></g><g clip-path="url(#fd6459a4bd)"><g fill="#34ab53" fill-opacity="1"><g transform="translate(265.812086, 41.802892)"><g><path d="M -0.046875 -27.6875 L 3.5625 -27.6875 L 13.484375 -2.84375 C 13.703125 -2.28125 13.929688 -2 14.171875 -2 C 14.429688 -2 14.644531 -2.289062 14.8125 -2.875 L 22.09375 -27.6875 L 25.65625 -27.6875 L 14.609375 0 C 14.335938 0.769531 13.96875 1.796875 13.5 3.078125 C 13.039062 4.359375 12.46875 5.710938 11.78125 7.140625 C 11.101562 8.566406 10.296875 9.925781 9.359375 11.21875 C 8.429688 12.519531 7.359375 13.578125 6.140625 14.390625 C 4.929688 15.203125 3.578125 15.609375 2.078125 15.609375 L 0.28125 15.609375 L 0.28125 12.5625 L 2.84375 12.5625 C 4.257812 12.5625 5.519531 12.210938 6.625 11.515625 C 7.726562 10.828125 8.6875 9.9375 9.5 8.84375 C 10.3125 7.75 11.019531 6.582031 11.625 5.34375 C 12.226562 4.101562 12.742188 2.945312 13.171875 1.875 C 13.378906 1.320312 13.367188 0.867188 13.140625 0.515625 C 12.921875 0.171875 12.503906 0 11.890625 0 L 11 0 Z M -0.046875 -27.6875 "/></g></g></g></g></g></g></svg>